<svg xmlns="http://www.w3.org/2000/svg" width="232" height="278"><path fill="#f8f8f8" d="m48.065 40.746 2.348-.017 2.533.012 2.702-.01c2.944-.01 5.888-.003 8.832.003l6.162-.005q6.46-.005 12.92.01c5.5.012 10.999.005 16.499-.007q6.366-.009 12.732 0 3.04.003 6.08-.005c2.844-.005 5.689.003 8.534.014l2.502-.012c17.217.123 32.844 6.253 45.18 18.314 14.576 15.979 19.334 34.768 19.122 55.996-.87 16.345-5.96 31.916-17.211 43.961l-1.715 1.918c-6.613 7.049-14.12 11.924-23.097 15.395l-1.864.734c-11.28 4.09-23.178 4.239-35.031 4.148l-4.383-.008q-5.7-.014-11.398-.05c-3.895-.02-7.79-.03-11.686-.04Q76.413 181.066 65 181l.007 2.081q.032 10.682.048 21.363.008 3.99.02 7.982.018 5.722.023 11.445l.015 3.63v3.337l.007 2.954C65 236 65 236 64 237c-1.769.1-3.541.13-5.312.133l-3.258.004-3.43-.012-3.43.012-6.27-.008C40 237 40 237 39 236c-.098-2.492-.13-4.955-.12-7.447l-.003-2.391c-.002-2.664.004-5.328.01-7.992l-.001-5.705q.001-7.77.013-15.539c.006-5.406.006-10.813.008-16.22q.005-15.368.021-30.737.016-17.491.022-34.984Q38.966 78.992 39 43c3.127-1.37 5.647-2.25 9.065-2.254M65 66l.02 3.928c.014 4.83-.018 9.657-.063 14.486a521 521 0 0 0-.002 6.26 509 509 0 0 1-.053 9.017l.044 2.807c-.113 5.096-.689 7.8-4.385 11.443l-1.878 1.573c-4.803 4.242-5.296 10.75-5.675 16.783-.022 7.62 2.638 13.24 7.992 18.703l3 1 .75 1.938c1.156 2.36 1.156 2.36 4.188 3.312 5.576 1.321 11.818 1.431 17.423.254 2.556-.488 4.92-.673 7.518-.741l2.852-.08 3.046-.07 3.164-.077q3.308-.077 6.614-.149c3.367-.074 6.733-.165 10.1-.256q3.217-.073 6.435-.143l3.04-.088c5.082-.091 9.097.116 13.87 2.1 8.412 1.453 14.992-1.47 22-6 5.06-4.265 7.68-9.763 8.32-16.242.217-6.706-.239-11.46-3.375-17.36-1.635-4.15-1.47-8.49-1.683-12.906C167.456 94.746 163.24 84.042 156 76c-2.917-2.232-2.917-2.232-6.187-4.187l-3.231-2.043c-9.124-4.508-18.629-4.037-28.555-3.965l-4.602.008q-6.015.014-12.029.05c-4.103.02-8.205.03-12.308.04-8.03.02-16.059.055-24.088.097"/><path fill="#ededed" d="M135 77c3.375 2.063 3.375 2.063 5 5 .438 3.688.438 3.688 0 7l-2 2c.101 2.878.39 5.218 1 8l.473 2.457c.825 2.793 1.502 4.428 3.527 6.543 3.517.91 6.894 1.2 10.512 1.496 5.1.737 7.945 2.901 11.488 6.504l1.52 1.516c3.86 4.227 5.263 8.179 5.792 13.796-.78 9.203-3.682 13.72-10.644 19.84-6.057 4.195-12.509 4.78-19.668 3.848-8.028-2.58-13.128-7.17-17.375-14.312-1.449-6.23-.759-12.458.375-18.688-.543.76-1.085 1.519-1.645 2.3l-2.168 3.013-2.144 2.988c-4.191 5.538-4.191 5.538-7.742 6.21l-2.989.177-3.011.199L103 137l-.559 1.723c-2.851 7.592-7.625 12.04-14.964 15.449-6.994 2.338-14.935.983-21.477-2.172-5.313-3.998-9.18-8.518-11-15-.766-6.043-.147-11.713 3-17 5.212-6.252 9.776-10.103 18-11 3.668-.076 7.331-.059 11 0 3.402-4.739 3.402-4.739 3.563-10.312C88.683 95.454 87.415 95.226 84 94c-1-1.937-1-1.937-1-4 1.573-2.06 2.475-2.905 5.053-3.372l2.326.009 2.54.002 2.644.049 2.654-.01c6.516.055 6.516.055 8.783 2.322.125 2.625.125 2.625 0 5l-6 2 27 1-2-4c.316-2.655.806-4.612 2-7l-3.25.188c-3.859-.193-5.038-.585-7.75-3.188l1-5c5.483-1.828 11.292-1.58 17-1m-30 28c.856 5.138 1.864 8.29 4.063 12.875l1.66 3.492L112 124c3.474-3.306 6.285-6.59 8.875-10.625l1.867-2.852c1.642-2.549 1.642-2.549.258-5.523zm28 5-4 5 1 2 4-4zm-37 1-1 5 1.938.813C99 118 99 118 100 121c1.311-2.829 1.311-2.829.223-4.824l-1.16-1.864L97 111zm51 6c.395 3.875.961 7.178 2.625 10.688C151 131 151 131 150.688 133.438L150 135h-5l-.988-2.555-1.325-3.32-1.3-3.305c-1.216-3.069-1.216-3.069-4.387-4.82-2.86 2.61-3.843 4.57-4.273 8.488-.326 6.401-.326 6.401 2.335 12.012 4.568 3.887 8.467 5.835 14.5 5.5 4.786-.743 7.12-2.52 10.438-6 2.721-4.46 2.658-8.918 2-14-1.987-3.903-4.12-6.893-8-9-3.653-.725-3.653-.725-7-1m-78 3c-3.58 3.648-5.296 7.53-5.562 12.625.297 4.43 1.489 7.071 4.562 10.375 4.048 3.016 7.622 4.343 12.688 3.938 3.616-.614 6.412-1.6 9.312-3.938v-2h2c.59-1.946.59-1.946 1-4-2.06-2.06-6.217-1.414-9.062-1.562l-2.3-.131Q78.82 135.148 76 135c-.252-4.314-.022-6.646 2.563-10.125 1.471-1.878 1.471-1.878 2.437-3.875-.264-2.196-.264-2.196-1-4-4.162 0-7.39.907-11 3m32 1 1 2Zm-12 2-2 6h5l1-4zm13 1 1 5 1-3z"/><path fill="#b4b4b4" d="M134 110c.715 1.766.715 1.766 1 4-1.434 1.922-1.434 1.922-3.437 3.75l-1.997 1.86L128 121l-2-2c2-2 2-2 4.563-3.937 2.671-1.899 2.671-1.899 3.437-5.063"/></svg>